 <svg version="1.0" xmlns="http://www.w3.org/2000/svg" width="700.000000pt" height="700.000000pt" viewBox="0 0 700.000000 700.000000" preserveAspectRatio="xMidYMid meet">
<metadata>
Created by potrace 1.12, written by Peter Selinger 2001-2015
</metadata>
<g transform="translate(0.000000,700.000000) scale(0.100000,-0.100000)" fill="#ffffff" stroke="none">
<path d="M3206 4150 c-2 -3 0 -203 4 -445 4 -242 6 -467 6 -500 l-1 -60 -200
0 -200 0 0 375 0 375 -195 3 -195 2 0 -525 0 -526 820 3 820 3 76 27 c286 101
439 319 439 621 0 201 -79 380 -215 487 -110 87 -229 130 -411 149 -108 11
-744 21 -748 11z m744 -408 c63 -29 117 -82 137 -134 10 -27 16 -77 17 -134 1
-84 -1 -94 -29 -140 -57 -91 -113 -114 -287 -114 l-118 0 0 268 c0 148 3 272
8 276 4 5 57 6 117 4 83 -4 122 -10 155 -26z"></path>
</g>
</svg>